PathFileType	4	(X/Y/Z)	Run_300 02
DataRate	CameraRate	NumFrames	NumMarkers	Units	OrigDataRate	OrigDataStartFrame	OrigNumFrames
120	120	4	42	mm	120	228	128
Frame#	Time	LASI			RASI			LPSI			RPSI			RTH1			RTH2			RTH3			LTH1			LTH2			LTH3			RTB1			RTB2			LTB1			LTB2			LTB3			RCAL			RTOE			RMT5			LCAL			LTOE			LMT5			LACR			RACR			CLAV			C7			RUA1			RUA2			RUA3			RLEL			RMEL			LUA1			LUA2			LUA3			LLEL			LMEL			RFAsuperior			RFAradius			RFAulna			LFAsuperior			LFAradius			LFAulna			RTB3			
		X1	Y1	Z1	X2	Y2	Z2	X3	Y3	Z3	X4	Y4	Z4	X5	Y5	Z5	X6	Y6	Z6	X7	Y7	Z7	X8	Y8	Z8	X9	Y9	Z9	X10	Y10	Z10	X11	Y11	Z11	X12	Y12	Z12	X13	Y13	Z13	X14	Y14	Z14	X15	Y15	Z15	X16	Y16	Z16	X17	Y17	Z17	X18	Y18	Z18	X19	Y19	Z19	X20	Y20	Z20	X21	Y21	Z21	X22	Y22	Z22	X23	Y23	Z23	X24	Y24	Z24	X25	Y25	Z25	X26	Y26	Z26	X27	Y27	Z27	X28	Y28	Z28	X29	Y29	Z29	X30	Y30	Z30	X31	Y31	Z31	X32	Y32	Z32	X33	Y33	Z33	X34	Y34	Z34	X35	Y35	Z35	X36	Y36	Z36	X37	Y37	Z37	X38	Y38	Z38	X39	Y39	Z39	X40	Y40	Z40	X41	Y41	Z41	X42	Y42	Z42	

202	2.808333	927.996911	1017.126326	-462.081414	893.109184	1044.806679	-204.561488	738.800132	1058.176567	-401.146402	725.632237	1061.905119	-321.933148	833.251557	874.5736429999999	-154.978482	896.268602	769.880873	-161.448468	840.993094	649.687245	-206.212945	920.270265	806.449754	-504.162865	1018.694862	709.809	-484.523884	989.1376760000001	590.7398030000001	-467.052496	877.451251	362.102673	-303.491677	830.560058	302.326358	-242.83419	943.87047	427.701818	-405.720005	855.6382139999999	411.74231	-463.886201	750.221197	355.49448	-409.910972	609.618826	113.620822	-347.756562	839.7851879999999	67.936857	-363.592924	766.960736	48.124718	-268.84732	584.391048	411.512401	-402.160428	646.171917	186.113625	-406.871318	602.319985	249.612017	-489.380188	952.325484	1496.846686	-505.653252	919.945849	1492.116276	-161.162202	980.271235	1434.889894	-295.328306	860.444263	1534.819211	-334.663903	898.161671	1390.538156	-79.25290699999999	899.300757	1300.603828	-74.92381399999999	826.323018	1296.270192	-45.618887	820.783564	1171.227662	23.297061	789.6896410000001	1145.57274	-49.809491	925.77107	1409.594469	-583.127304	919.692196	1336.76822	-577.688218	823.932647	1347.531187	-596.116155	796.670114	1192.467983	-662.18325	735.596705	1191.904178	-598.363115	929.043662	1152.358226	7.183895	1068.619097	1110.298837	-102.927295	1071.444339	1085.628221	-33.408889	879.144992	1156.143673	-619.7929810000001	989.098281	1116.791168	-477.980746	980.043332	1056.975426	-516.977084	791.207225	219.621039	-321.242198	
203	2.816667	928.120887	1021.331789	-461.403333	891.5110089999999	1046.060068	-203.067678	738.718362	1062.27184	-401.309271	725.471695	1065.612206	-321.936197	827.976064	876.38253	-155.624271	886.482995	769.793533	-162.365378	827.138204	651.67953	-207.63888	924.296682	812.774716	-503.928521	1026.471105	720.101825	-483.931619	1001.047644	600.455617	-466.810923	856.419003	361.870994	-304.320655	808.412886	302.963043	-243.634132	962.62988	430.841463	-404.885753	874.90077	413.502464	-463.621064	772.871296	350.864742	-410.029373	585.493759	116.098198	-347.602298	814.9267149999999	67.650462	-363.441987	741.830912	48.305553	-269.089484	603.193205	396.929885	-402.2562	679.918802	176.528018	-408.024637	631.925842	237.141239	-490.654278	948.579783	1501.639573	-506.177271	922.715416	1497.323976	-161.982924	980.2107109999999	1439.436512	-296.884866	859.956874	1538.690141	-333.842974	903.205291	1395.867013	-79.976011	906.95812	1305.547765	-76.486339	835.757618	1299.679483	-43.073848	833.1926089999999	1173.822664	22.834632	800.812105	1148.210478	-50.145705	919.403125	1416.037639	-584.1559	912.8374209999999	1343.406468	-579.937918	816.431844	1355.505327	-595.418154	786.305243	1201.241435	-662.307574	726.490009	1200.919866	-597.459512	941.681157	1160.694016	3.361698	1080.194382	1127.988839	-110.525806	1085.541041	1101.354556	-41.860046	870.224418	1166.630541	-620.643713	980.826131	1126.198638	-481.648027	972.577848	1066.713504	-521.355197	768.09027	220.475266	-321.830225	
204	2.825	928.563072	1026.164343	-461.032894	890.288137	1047.6564	-201.620783	738.925068	1067.023033	-401.254177	725.568766	1069.846789	-321.711815	822.627984	878.605324	-156.580985	877.194302	770.3677719999999	-163.640927	813.454212	654.566735	-209.223609	928.299721	819.6987810000001	-503.788138	1033.659655	730.904008	-483.316618	1011.901351	610.777665	-466.703868	835.19798	362.604057	-305.476961	786.037911	304.539427	-244.768363	980.7647459999999	433.74802	-403.933819	893.493427	415.127518	-463.114416	795.549128	345.892544	-409.8335	561.72001	119.540869	-347.458686	790.156707	67.422411	-363.512332	716.680483	48.588554	-269.60357	622.523466	380.982876	-401.799758	714.902228	166.830299	-408.930651	662.658442	224.36723	-491.739728	944.654091	1507.130297	-506.621687	925.461753	1503.267968	-162.861355	980.369236	1444.729777	-298.442945	859.657512	1543.132201	-332.984208	907.965155	1402.052955	-80.75122	914.3724120000001	1311.393554	-78.41231000000001	845.144358	1304.445256	-41.002879	844.8984	1177.61902	21.979636	811.04575	1152.230483	-50.904697	912.700335	1423.452457	-585.092312	905.962839	1350.947508	-582.158605	809.105743	1364.136833	-594.528018	776.04533	1210.854342	-662.045709	717.59401	1210.603464	-596.170067	953.214385	1169.934895	-0.67679	1089.959504	1146.698486	-118.319166	1098.008364	1118.158695	-50.853948	861.290462	1177.585335	-621.111941	973.001107	1136.376368	-485.309151	965.413733	1077.011515	-525.440453	745.1267319999999	222.057574	-322.609517	
205	2.833333	929.236803	1031.562349	-460.290173	889.567184	1049.657563	-200.329211	739.436566	1072.330709	-401.035082	725.994768	1074.541689	-321.31068	817.60957	881.367869	-157.706447	868.707073	771.599754	-165.266233	800.156449	658.330642	-210.849316	932.329529	827.236775	-503.832887	1040.278652	742.0456840000001	-482.717876	1021.691311	621.470208	-466.727137	814.008838	364.32549	-306.753391	763.687902	307.126226	-246.039936	998.213618	436.713787	-403.143637	911.432417	416.430341	-462.41819	818.245768	340.57905	-409.340876	538.41094	124.159043	-347.243923	765.4968260000001	67.209909	-363.732188	691.545226	49.021535	-270.374331	642.656474	363.812057	-400.799184	750.941514	157.058608	-409.515724	694.403627	211.383296	-492.386145	940.708572	1513.101007	-506.899882	928.14401	1509.799853	-163.789782	980.776165	1450.621219	-299.9236	859.515369	1548.002149	-332.143159	912.666121	1408.861279	-81.58778700000001	921.430711	1317.993305	-80.484516	854.186005	1310.312019	-39.498116	855.783761	1182.402506	20.824338	820.246772	1157.437137	-51.941284	905.900886	1431.630268	-585.910896	899.199404	1359.127827	-584.223449	802.138608	1373.184378	-593.38426	765.918895	1221.06513	-661.451697	708.99958	1220.824286	-594.4614340000001	963.567733	1179.85952	-4.768895	1097.924988	1166.070842	-126.18136	1108.736417	1135.676968	-60.337572	851.975863	1188.1848	-621.921387	965.5323979999999	1146.941792	-488.72698	958.452328	1087.569912	-529.098021	722.412973	224.481163	-323.414473	
